<svg width="24" height="24" viewBox="0 0 24 24" fill="none" xmlns="http://www.w3.org/2000/svg">
<g opacity="0.5">
<path fill-rule="evenodd" clip-rule="evenodd" d="M3.69 4.09998L1.01001 1.41998L2.41998 0L20.15 17.74L18.74 19.15L15.32 15.73C13.98 16.26 12.52 16.55 11 16.55C6 16.55 1.72998 13.44 0 9.04999C0.77002 7.08002 2.06 5.38 3.69 4.09998ZM11.12 11.53L8.51001 8.91998C8.51001 8.94495 8.50751 8.96497 8.505 8.98499C8.5025 9.005 8.5 9.02502 8.5 9.04999C8.5 10.43 9.62 11.55 11 11.55C11.0398 11.55 11.0797 11.54 11.1194 11.5302L11.12 11.53ZM6.85999 7.27002L5.10999 5.52002C3.90002 6.44 2.88 7.62 2.17999 9.04999C3.83002 12.42 7.21002 14.55 11 14.55C11.95 14.55 12.87 14.41 13.75 14.17L12.77 13.19C12.23 13.42 11.63 13.55 11 13.55C8.52002 13.55 6.5 11.53 6.5 9.04999C6.5 8.41998 6.63 7.82001 6.85999 7.27002ZM11 3.55005C14.79 3.55005 18.17 5.68005 19.82 9.05005C19.23 10.27 18.4 11.3201 17.41 12.17L18.82 13.5801C20.21 12.35 21.31 10.8101 22 9.05005C20.27 4.66003 16 1.55005 11 1.55005C9.72998 1.55005 8.51001 1.75006 7.35999 2.12006L9.01001 3.77002C9.65997 3.64008 10.32 3.55005 11 3.55005ZM9.92999 4.69006L12 6.76007C12.57 7.01007 13.03 7.47003 13.28 8.04004L15.35 10.11C15.43 9.77002 15.49 9.41003 15.49 9.04004C15.5 6.56006 13.48 4.55005 11 4.55005C10.63 4.55005 10.28 4.60004 9.92999 4.69006Z" transform="translate(1 2.44995)" fill="black"/>
</g>
</svg>
