<svg width="71" height="24" viewBox="0 0 71 24" fill="none" xmlns="http://www.w3.org/2000/svg">
<path d="M15.3406 0H12.2426V11.0482C10.9362 9.59253 9.14463 8.65941 7.12908 8.65941C3.20995 8.65941 0 12.168 0 16.4603C0 20.6781 3.1353 23.9627 7.12908 23.9627C9.14463 23.9627 10.9736 23.1042 12.2426 21.7232V23.4774H15.3033H17.8787V20.3421H15.3033V0H15.3406ZM7.20373 20.8647C4.88958 20.8647 2.986 18.9611 2.986 16.4603C2.986 13.8476 4.96423 11.7201 7.20373 11.7201C9.44323 11.7201 11.4215 13.8476 11.4215 16.4603C11.4588 18.9611 9.55521 20.8647 7.20373 20.8647Z" fill="#231F20"/>
<path d="M10.7496 8.65941C8.73405 8.65941 6.94245 9.55521 5.63608 11.0482V0H2.57543H0V3.1353H2.57543V23.5148H5.63608V21.7605C6.90513 23.1415 8.73405 24 10.7496 24C14.7434 24 17.8787 20.7154 17.8787 16.4977C17.8787 12.168 14.6687 8.65941 10.7496 8.65941ZM10.675 20.8647C8.36081 20.8647 6.45723 18.9611 6.45723 16.4603C6.45723 13.8476 8.43546 11.7201 10.675 11.7201C12.9145 11.7201 14.8927 13.8476 14.8927 16.4603C14.8927 18.9611 12.9891 20.8647 10.675 20.8647Z" transform="translate(52.2178)" fill="#231F20"/>
<path d="M14.1835 0H10.7869L7.09176 9.89113L3.39658 0H0L5.37481 14.3701H5.41213H8.77138H8.80871L12.9891 3.1353H15.1913V0H14.1835Z" transform="translate(18.7372 9.10731)" fill="#231F20"/>
<path d="M9.36858 9.10731C7.95023 9.10731 6.68118 9.55521 5.59876 10.339V0H2.5381V20.3795H0V23.5148H2.5381H5.59876V17.2068V16.9082C5.59876 14.2208 7.20373 12.168 9.36858 12.168C11.6827 12.168 12.5039 14.5941 12.5039 16.9082V17.2068V23.4774H15.5645V17.2068V16.9082V16.6096C15.4526 12.1306 12.9891 9.10731 9.36858 9.10731Z" transform="translate(35.1228)" fill="#231F20"/>
</svg>
