<svg width="222" height="40" viewBox="0 0 222 40" fill="none" xmlns="http://www.w3.org/2000/svg">
<path d="M29.8286 12.5714C29.8286 4 23.6571 0 14.9714 0H0V38.4571H9.3143V25.2H12.1143C12.8 25.2 13.7143 25.2 14.3429 25.1429L24.1143 38.4571H35.8857L23.5429 22.9714C27.7714 20.6286 29.8286 16.8571 29.8286 12.5714ZM12.5143 18.7428H9.37144V7.31428H13.8286C18.8 7.31428 20.3429 8.97143 20.3429 12.8C20.2857 16.4571 18 18.7428 12.5143 18.7428Z" transform="translate(146.171 0.685722)" fill="black"/>
<path d="M39.8857 32.2286L29.8286 0H20.6286L23.8857 9.31428L14.9714 32.5143L8.97143 0H0L8.28571 38.4H20.1714L27.3714 18.7429L27.4286 18.8571L34 38.4H45.6571L56.1714 0H47.3714L39.8857 32.2286Z" transform="translate(41.8857 0.685722)" fill="black"/>
<path d="M34.5714 38.4L18.1714 18L33.7143 0H21.9429L9.25715 15.8286V0H0V38.4H9.25715V19.7714L22.8 38.4H34.5714Z" transform="translate(187.371 0.685722)" fill="black"/>
<path d="M20 0C8.97143 0 0 8.97143 0 20C0 31.0286 8.97143 40 20 40C31.0286 40 40 31.0286 40 20C40 8.97143 31.0286 0 20 0ZM20 31.4857C13.6571 31.4857 8.51429 26.3429 8.51429 20C8.51429 13.6571 13.6571 8.51428 20 8.51428C26.3429 8.51428 31.4857 13.6571 31.4857 20C31.4857 26.3429 26.3429 31.4857 20 31.4857Z" fill="black"/>
<path d="M20 0C8.97143 0 0 8.97143 0 20C0 31.0286 8.97143 40 20 40C31.0286 40 40 31.0286 40 20C40 8.97143 31.0857 0 20 0ZM20 31.4857C13.6571 31.4857 8.5143 26.3429 8.5143 20C8.5143 13.6571 13.6571 8.51428 20 8.51428C26.3429 8.51428 31.4857 13.6571 31.4857 20C31.4857 26.3429 26.3429 31.4857 20 31.4857Z" transform="translate(99.8857)" fill="black"/>
</svg>
